<svg xmlns="http://www.w3.org/2000/svg" viewBox="0 0 179.104 60">
  <title>CPS Design System</title>
  <defs>
    <style>
      .cps { fill: #b01116 }
      .text { fill: #1a1a1a }
    </style>
  </defs>
  <path d="M69.47,16.563c.073-2.176,1.015-3.044,4.132-3.044H90.768V7.441H74.68c-7.605,0-11.883,3.254-11.883,9.415,0,12.02,21.947,9.561,21.947,15.932,0,2.175-1.161,3.336-4.132,3.336H58.163a16.28,16.28,0,0,0,3.656-10.43c0-10.283-6.664-18.967-17.952-18.967-10.21,0-17.523,7.678-17.523,19.113v2.843H18.611c-6.005,0-11.947-3.912-11.947-11.3s5.941-11.3,11.947-11.3h4.927V0H17.459C9.342,0,0,6.225,0,17.377S9.342,34.753,17.45,34.753h8.894V60h6.371V34.753h12.13V28.675H32.715V26.993c0-9.561,5.073-14.2,11.152-14.2,6.81,0,11.581,4.991,11.581,12.093,0,6.1-3.3,10.055-8.528,11.225H38.793v6.079H80.622c6.152,0,10.786-3.117,10.786-9.7,0-12.459-22.02-9.918-21.938-15.932" class="cps"/>
  <path d="M427.35,497.827a5.029,5.029,0,0,1-1.9.3c-2.027,0-3.551-1.141-3.551-3.25,0-2.008,1.525-3.378,3.752-3.378a4.371,4.371,0,0,1,1.707.283l-.219.676a3.714,3.714,0,0,0-1.452-.265,2.527,2.527,0,0,0-2.8,2.648,2.472,2.472,0,0,0,2.757,2.584,4.061,4.061,0,0,0,1.516-.265Zm1.534-1.935a1.574,1.574,0,0,0,1.771,1.6,3.8,3.8,0,0,0,1.424-.237l.164.593a4.54,4.54,0,0,1-1.716.283,2.271,2.271,0,0,1-2.538-2.328,2.341,2.341,0,0,1,2.419-2.483,2.032,2.032,0,0,1,2.127,2.173,1.968,1.968,0,0,1-.037.393h-3.615Zm2.748-.6a1.239,1.239,0,0,0-1.3-1.36,1.469,1.469,0,0,0-1.442,1.36Zm2.063-.612c0-.475-.009-.867-.046-1.251h.831l.055.758h.018a1.938,1.938,0,0,1,1.707-.867,1.764,1.764,0,0,1,1.826,1.963v2.757h-.931V495.38c0-.74-.31-1.36-1.2-1.36a1.324,1.324,0,0,0-1.26.858,1.218,1.218,0,0,0-.064.393v2.775h-.94v-3.369Zm7.011-2.574v1.324h1.342v.639h-1.342v2.492c0,.566.183.895.7.895a2.463,2.463,0,0,0,.548-.055l.046.63a2.59,2.59,0,0,1-.831.119,1.394,1.394,0,0,1-1.013-.356,1.582,1.582,0,0,1-.365-1.2v-2.52h-.8v-.639h.8v-1.1Zm2.392,2.766c0-.548-.009-1-.046-1.442h.822l.027.9h.046a1.526,1.526,0,0,1,1.424-1.013,1.125,1.125,0,0,1,.265.027v.785a1.6,1.6,0,0,0-.32-.027,1.267,1.267,0,0,0-1.26,1.077,2.444,2.444,0,0,0-.046.393v2.456h-.931v-3.159Zm8.052.831a2.39,2.39,0,0,1-2.565,2.447,2.318,2.318,0,0,1-2.474-2.374,2.382,2.382,0,0,1,2.556-2.447,2.307,2.307,0,0,1,2.483,2.374m-4.09.046a1.623,1.623,0,0,0,1.561,1.771,1.641,1.641,0,0,0,1.57-1.789,1.579,1.579,0,1,0-3.131.018m-24.732,4.318a12.27,12.27,0,0,1,1.78-.128,3.191,3.191,0,0,1,2.018.539,1.652,1.652,0,0,1,.63,1.342,1.754,1.754,0,0,1-.557,1.369,3.19,3.19,0,0,1-2.191.7,3.737,3.737,0,0,1-.749-.055v2.574h-.931Zm.922,3.095a3.588,3.588,0,0,0,.767.064c1.123,0,1.8-.484,1.8-1.369,0-.849-.676-1.26-1.7-1.26a4.617,4.617,0,0,0-.876.064v2.5Zm7.294,3.25-.073-.584h-.027a1.984,1.984,0,0,1-1.579.685,1.407,1.407,0,0,1-1.579-1.324c0-1.114,1.1-1.725,3.1-1.716v-.091c0-.383-.119-1.068-1.169-1.068a2.892,2.892,0,0,0-1.342.338l-.219-.557a3.524,3.524,0,0,1,1.689-.411,1.717,1.717,0,0,1,1.963,1.89v1.725a5.793,5.793,0,0,0,.082,1.1h-.849Zm-.137-2.355c-1.022-.018-2.182.146-2.182,1.041a.794.794,0,0,0,.886.8,1.3,1.3,0,0,0,1.251-.767.723.723,0,0,0,.055-.265v-.812Zm6.738,1.1c0,.475.009.895.036,1.26h-.831l-.055-.749h-.018a1.979,1.979,0,0,1-1.707.858c-.812,0-1.78-.4-1.78-2.018v-2.693h.94v2.556c0,.876.3,1.47,1.15,1.47a1.349,1.349,0,0,0,1.232-.758,1.089,1.089,0,0,0,.082-.429v-2.83h.94v3.332Zm1.552-5.505h.94v6.765h-.94Zm5.377,6.765-.073-.584h-.037a1.984,1.984,0,0,1-1.579.685,1.407,1.407,0,0,1-1.579-1.324c0-1.114,1.1-1.725,3.1-1.716v-.091c0-.383-.119-1.068-1.169-1.068a2.892,2.892,0,0,0-1.342.338l-.21-.557a3.508,3.508,0,0,1,1.7-.411,1.717,1.717,0,0,1,1.963,1.89v1.725a5.8,5.8,0,0,0,.082,1.1h-.858Zm-.137-2.355c-1.022-.018-2.191.146-2.191,1.041a.794.794,0,0,0,.886.8,1.3,1.3,0,0,0,1.251-.767.978.978,0,0,0,.055-.265v-.812Zm4.583,1.342a3.566,3.566,0,0,0,1.662.42c.949,0,1.506-.447,1.506-1.1,0-.6-.383-.94-1.351-1.278-1.178-.374-1.9-.913-1.9-1.817,0-1,.922-1.744,2.319-1.744a3.711,3.711,0,0,1,1.589.31l-.256.676a3.221,3.221,0,0,0-1.369-.3c-.977,0-1.351.52-1.351.959,0,.6.438.895,1.433,1.242,1.214.42,1.835.94,1.835,1.89,0,1-.822,1.844-2.52,1.844a4.071,4.071,0,0,1-1.835-.411Zm10.079-1.333a2.39,2.39,0,0,1-2.565,2.447,2.318,2.318,0,0,1-2.474-2.374,2.382,2.382,0,0,1,2.556-2.447,2.311,2.311,0,0,1,2.483,2.374m-4.09.046a1.624,1.624,0,0,0,1.57,1.771,1.647,1.647,0,0,0,1.57-1.789,1.583,1.583,0,1,0-3.141.018m9.586,1.041c0,.475.009.895.046,1.26h-.831l-.055-.749h-.018a1.979,1.979,0,0,1-1.707.858c-.813,0-1.78-.4-1.78-2.018v-2.693h.94v2.556c0,.876.3,1.47,1.15,1.47a1.349,1.349,0,0,0,1.232-.758,1.089,1.089,0,0,0,.082-.429v-2.83h.94Zm.977.776,2.337-2.721c.219-.247.438-.466.666-.712v-.018h-2.794V501.8h3.935l-.009.53-2.3,2.675c-.21.256-.42.484-.657.721v.018h3.013v.666h-4.19Zm8,.484-.073-.584h-.037a1.984,1.984,0,0,1-1.579.685,1.4,1.4,0,0,1-1.579-1.324c0-1.114,1.1-1.725,3.1-1.716v-.091c0-.383-.119-1.068-1.169-1.068a2.892,2.892,0,0,0-1.342.338l-.21-.557a3.508,3.508,0,0,1,1.7-.411,1.717,1.717,0,0,1,1.963,1.89v1.725a5.793,5.793,0,0,0,.082,1.1h-.858Zm-.137-2.355c-1.022-.018-2.182.146-2.182,1.041a.794.794,0,0,0,.886.8,1.3,1.3,0,0,0,1.251-.767.723.723,0,0,0,.055-.265v-.812Z" transform="translate(-383.37 -446.559)" class="text"/>
  <path d="M16.644-11.337a13.381,13.381,0,0,1-1.27,6A9.064,9.064,0,0,1,11.68-1.384,11.306,11.306,0,0,1,5.979,0H.889L4.812-18.561H9.5A7.192,7.192,0,0,1,14.79-16.72,7.264,7.264,0,0,1,16.644-11.337ZM6.132-2.552a7.024,7.024,0,0,0,3.923-1.092,7.006,7.006,0,0,0,2.571-3.072,10.865,10.865,0,0,0,.9-4.52A5.111,5.111,0,0,0,12.4-14.8a4.177,4.177,0,0,0-3.25-1.225H7.3L4.418-2.552Zm18.444-7.61a2.7,2.7,0,0,0-1.939.924A5.327,5.327,0,0,0,21.332-6.8h.312A7.117,7.117,0,0,0,24.8-7.375,1.779,1.779,0,0,0,25.94-9a1.084,1.084,0,0,0-.344-.854A1.492,1.492,0,0,0,24.576-10.162ZM22.943.215a4.453,4.453,0,0,1-3.3-1.192,4.513,4.513,0,0,1-1.187-3.33,9.452,9.452,0,0,1,.833-3.958A6.791,6.791,0,0,1,21.542-11.1a5.415,5.415,0,0,1,3.185-1,4.167,4.167,0,0,1,2.691.779,2.679,2.679,0,0,1,.961,2.208A3.42,3.42,0,0,1,26.59-6.053a9.771,9.771,0,0,1-5.1,1.1h-.462l-.021.333v.312a2.7,2.7,0,0,0,.607,1.869,2.307,2.307,0,0,0,1.81.677,5.919,5.919,0,0,0,1.536-.2,10.955,10.955,0,0,0,1.8-.7V-.655a9.97,9.97,0,0,1-1.9.671A8.625,8.625,0,0,1,22.943.215ZM37.392-3.652A3.44,3.44,0,0,1,36.124-.79a5.538,5.538,0,0,1-3.523,1A7.578,7.578,0,0,1,29.142-.5V-2.686a6.539,6.539,0,0,0,3.352.967,2.99,2.99,0,0,0,1.687-.43,1.339,1.339,0,0,0,.645-1.171,1.32,1.32,0,0,0-.371-.94,7.25,7.25,0,0,0-1.52-1.047,5.67,5.67,0,0,1-1.9-1.466,2.886,2.886,0,0,1-.553-1.767,3.2,3.2,0,0,1,1.149-2.61,4.74,4.74,0,0,1,3.1-.945,7.478,7.478,0,0,1,3.717.9L37.639-9.3a6.008,6.008,0,0,0-2.857-.816,2.117,2.117,0,0,0-1.273.354,1.152,1.152,0,0,0-.489.988,1.218,1.218,0,0,0,.354.859,6.276,6.276,0,0,0,1.45.967,8.423,8.423,0,0,1,1.6,1.085,3.258,3.258,0,0,1,.72.983A2.89,2.89,0,0,1,37.392-3.652ZM42.44-14.8a1.667,1.667,0,0,1,.419-1.182,1.533,1.533,0,0,1,1.182-.451,1.43,1.43,0,0,1,.924.285,1.043,1.043,0,0,1,.354.865,1.649,1.649,0,0,1-.43,1.2,1.5,1.5,0,0,1-1.128.44,1.542,1.542,0,0,1-.945-.279A1.025,1.025,0,0,1,42.44-14.8ZM41.936,0H39.4l2.535-11.881H44.46ZM57.222-11.881l-.333,1.472-2.062.354a3.353,3.353,0,0,1,.3,1.472,4.335,4.335,0,0,1-1.278,3.292,4.759,4.759,0,0,1-3.427,1.219,5.077,5.077,0,0,1-.988-.086q-1.192.43-1.192,1.117a.557.557,0,0,0,.338.559,3.75,3.75,0,0,0,.983.236l1.364.172a5.159,5.159,0,0,1,2.707.94A2.514,2.514,0,0,1,54.45.881a3.754,3.754,0,0,1-1.622,3.255A7.894,7.894,0,0,1,48.22,5.285a6.018,6.018,0,0,1-3.378-.806,2.53,2.53,0,0,1-1.2-2.213A2.718,2.718,0,0,1,44.39.354a5.75,5.75,0,0,1,2.4-1.364,1.509,1.509,0,0,1-.816-1.364,1.832,1.832,0,0,1,.5-1.284,5.079,5.079,0,0,1,1.574-1.047A2.933,2.933,0,0,1,46.6-7.412a4.538,4.538,0,0,1,1.316-3.395A4.752,4.752,0,0,1,51.389-12.1a7.063,7.063,0,0,1,1.719.215ZM48.424-.193a3.6,3.6,0,0,0-1.848.763,1.8,1.8,0,0,0-.645,1.407,1.288,1.288,0,0,0,.6,1.112,3.221,3.221,0,0,0,1.821.414,5.429,5.429,0,0,0,2.739-.58,1.83,1.83,0,0,0,.988-1.665A.972.972,0,0,0,51.593.4a4.164,4.164,0,0,0-1.7-.44Zm2.9-10.216A1.925,1.925,0,0,0,50.1-10a2.678,2.678,0,0,0-.816,1.128,4.116,4.116,0,0,0-.29,1.563,1.673,1.673,0,0,0,.381,1.176,1.409,1.409,0,0,0,1.09.414,1.845,1.845,0,0,0,1.208-.419,2.732,2.732,0,0,0,.795-1.149,4.372,4.372,0,0,0,.285-1.6Q52.753-10.409,51.324-10.409ZM63.946,0l1.525-7.219a8.117,8.117,0,0,0,.193-1.407,1.234,1.234,0,0,0-1.386-1.407,2.407,2.407,0,0,0-1.525.612A5.539,5.539,0,0,0,61.4-7.654a10,10,0,0,0-.9,2.616L59.445,0H56.91l2.535-11.881h1.977l-.226,2.2h.1a6.437,6.437,0,0,1,1.837-1.842,3.878,3.878,0,0,1,2.052-.575,2.957,2.957,0,0,1,2.229.816,3.2,3.2,0,0,1,.79,2.32,10.143,10.143,0,0,1-.247,1.944L66.481,0ZM11.807,14.566a5.115,5.115,0,0,1-1.834,4.177,7.732,7.732,0,0,1-5.059,1.511A9.18,9.18,0,0,1,.5,19.3V16.458a9,9,0,0,0,4.443,1.231,4.517,4.517,0,0,0,2.742-.743,2.422,2.422,0,0,0,1-2.063,2.488,2.488,0,0,0-.521-1.555A9,9,0,0,0,5.979,11.6a9.92,9.92,0,0,1-1.968-1.549,5.117,5.117,0,0,1-.971-1.53A4.848,4.848,0,0,1,2.7,6.683,5.348,5.348,0,0,1,3.485,3.8,5.156,5.156,0,0,1,5.694,1.858a7.344,7.344,0,0,1,3.218-.686,10.285,10.285,0,0,1,4.837,1.168L12.657,4.766a8.688,8.688,0,0,0-3.745-.99,3.226,3.226,0,0,0-2.222.743,2.465,2.465,0,0,0-.838,1.936A2.674,2.674,0,0,0,6.043,7.5a2.551,2.551,0,0,0,.59.838A12.312,12.312,0,0,0,8.341,9.552a8.74,8.74,0,0,1,2.717,2.38A4.715,4.715,0,0,1,11.807,14.566Zm2.687-6.447h2.492l.677,5.7q.1.666.172,1.875t.075,1.95h.064q.924-2.31,1.45-3.362l3.147-6.166H25.3l-7.391,13.75A7.645,7.645,0,0,1,15.8,24.463a4.449,4.449,0,0,1-2.675.822,5.607,5.607,0,0,1-1.536-.2v-2.02a6.66,6.66,0,0,0,1.343.172,2.394,2.394,0,0,0,1.439-.467,5.317,5.317,0,0,0,1.332-1.67l.548-.988ZM32.6,16.348a3.44,3.44,0,0,1-1.268,2.863,5.538,5.538,0,0,1-3.523,1,7.578,7.578,0,0,1-3.459-.72V17.314a6.539,6.539,0,0,0,3.352.967,2.99,2.99,0,0,0,1.687-.43,1.339,1.339,0,0,0,.645-1.171,1.32,1.32,0,0,0-.371-.94,7.25,7.25,0,0,0-1.52-1.047,5.67,5.67,0,0,1-1.9-1.466A2.886,2.886,0,0,1,25.7,11.46a3.2,3.2,0,0,1,1.149-2.61,4.74,4.74,0,0,1,3.1-.945,7.478,7.478,0,0,1,3.717.9L32.852,10.7a6.008,6.008,0,0,0-2.857-.816,2.117,2.117,0,0,0-1.273.354,1.152,1.152,0,0,0-.489.988,1.218,1.218,0,0,0,.354.859,6.276,6.276,0,0,0,1.45.967,8.423,8.423,0,0,1,1.6,1.085,3.258,3.258,0,0,1,.72.983A2.89,2.89,0,0,1,32.6,16.348ZM39,18.174a4.682,4.682,0,0,0,1.622-.333v1.912a4.655,4.655,0,0,1-1.021.322,6.072,6.072,0,0,1-1.289.14q-2.943,0-2.943-2.653a6.753,6.753,0,0,1,.172-1.407l1.3-6.123H35.1l.226-1.182,2.041-.881,1.386-2.492h1.568l-.559,2.643h3l-.419,1.912H39.361l-1.311,6.145a4.443,4.443,0,0,0-.14.988,1.006,1.006,0,0,0,.269.736A1.1,1.1,0,0,0,39,18.174ZM49.319,9.838a2.7,2.7,0,0,0-1.939.924A5.327,5.327,0,0,0,46.075,13.2h.312a7.117,7.117,0,0,0,3.158-.575A1.779,1.779,0,0,0,50.684,11a1.084,1.084,0,0,0-.344-.854A1.492,1.492,0,0,0,49.319,9.838ZM47.687,20.215a4.453,4.453,0,0,1-3.3-1.192,4.513,4.513,0,0,1-1.187-3.33,9.452,9.452,0,0,1,.833-3.958A6.791,6.791,0,0,1,46.285,8.9a5.415,5.415,0,0,1,3.185-1,4.167,4.167,0,0,1,2.691.779,2.679,2.679,0,0,1,.961,2.208,3.42,3.42,0,0,1-1.789,3.056,9.771,9.771,0,0,1-5.1,1.1h-.462l-.021.333v.312a2.7,2.7,0,0,0,.607,1.869,2.307,2.307,0,0,0,1.81.677,5.919,5.919,0,0,0,1.536-.2,10.955,10.955,0,0,0,1.8-.7v2.009a9.97,9.97,0,0,1-1.9.671A8.625,8.625,0,0,1,47.687,20.215ZM62.4,7.9a2.552,2.552,0,0,1,2.729,2.524h.086a6,6,0,0,1,1.832-1.885A3.977,3.977,0,0,1,69.182,7.9a2.79,2.79,0,0,1,2.175.822,3.321,3.321,0,0,1,.747,2.315,11.318,11.318,0,0,1-.236,1.944L70.363,20H67.839l1.536-7.219a8.6,8.6,0,0,0,.2-1.429q0-1.386-1.3-1.386A2.779,2.779,0,0,0,66.115,11.3a8.824,8.824,0,0,0-1.466,3.534L63.563,20H61.039l1.536-7.219a7.231,7.231,0,0,0,.183-1.364q0-1.45-1.257-1.45a2.781,2.781,0,0,0-2.186,1.364,9.383,9.383,0,0,0-1.488,3.631L56.774,20H54.239L56.774,8.119h1.977l-.226,2.2h.1A4.532,4.532,0,0,1,62.4,7.9Z" transform="translate(107 30)" class="text"/>
</svg>
